<svg xmlns="http://www.w3.org/2000/svg" viewBox="0 0 543.09 54.87"><defs><style>.cls-1{fill:#8c8c8c;}</style></defs><title>r0m</title><g id="レイヤー_2" data-name="レイヤー 2"><g id="レイヤー_1-2" data-name="レイヤー 1"><path class="cls-1" d="M24.41,28.8a30.85,30.85,0,0,1,6.34,6.55s3.89,5.26,9.14,18.3H32C31.25,50.62,24,29,10.44,29L9.15,29v24.7H0V0H12.17c4.9,0,8.93.29,12.1,1.22a16.37,16.37,0,0,1,7.84,4.47,11.49,11.49,0,0,1,3,8,12.23,12.23,0,0,1-4,9.22,18.52,18.52,0,0,1-8.64,4.61A13.47,13.47,0,0,1,24.41,28.8ZM11.45,4l-2.3-.07v21.6h5.11a11.13,11.13,0,0,0,2.59-.43c.86-.22,1.66-.51,2.38-.72a8.77,8.77,0,0,0,3.24-2.09,8.42,8.42,0,0,0,1.94-3,15.23,15.23,0,0,0,.72-4.83c0-3.46-.86-6-2.52-7.92C21.17,4.68,17.5,4,11.45,4Z"/><path class="cls-1" d="M79.76,53.65c-5.4,0-9.43-2.45-12.82-7.64-3.24-4.89-4.82-11.38-4.82-19.22s1.58-14.4,4.82-19.23C70.33,2.38,74.36,0,79.76,0s9.43,2.38,12.89,7.56c3.24,4.9,4.82,11.38,4.82,19.23S95.89,41,92.65,45.94C89.27,51.2,85.23,53.65,79.76,53.65Zm0-48.9c-2.38,0-4,.94-5.69,3.46-1.51,2.3-3.38,8.42-3.38,18.58s1.8,16.2,3.38,18.57c1.59,2.52,3.24,3.46,5.69,3.46,3,0,4.75-1.08,6-4,.86-1.95,3-7.71,3-18,0-10.08-1.8-16.28-3.38-18.58C83.87,5.69,82.21,4.75,79.76,4.75Z"/><path class="cls-1" d="M167.56,53.65V10.08L148.34,53.65h-3L126.3,10.08V53.65h-3.53V0h8.65l18.43,41.62L168.21,0h8.64V53.65Z"/><path class="cls-1" d="M205.48,54.87A4.57,4.57,0,0,1,202,53.36a4.87,4.87,0,0,1,0-6.77,5,5,0,0,1,3.46-1.44,4.86,4.86,0,0,1,3.46,1.44A4.62,4.62,0,0,1,210.3,50a4.47,4.47,0,0,1-1.44,3.46A4.7,4.7,0,0,1,205.48,54.87Z"/><path class="cls-1" d="M264.33,3.53H256.7V53.65h-9.22V3.53H226L226.17,0H278.3l.07,3.53Z"/><path class="cls-1" d="M317.35,53.65c-8.21,0-13.25-2.53-18.43-7.49-5.33-5-7.92-11.6-7.92-19.73q0-11.88,8-19.23c5.33-4.82,10.3-7.2,18.29-7.2s13,2.38,18.43,7.13,8.14,11.38,8.14,19.58c0,7.92-2.59,14.48-7.78,19.45S325.78,53.65,317.35,53.65Zm-.07-50c-5.69,0-8.35,1.87-11.45,5.76s-4.61,9.51-4.61,17.35,1.59,13.76,4.61,17.57,5.9,5.69,12,5.69a13.8,13.8,0,0,0,11.81-5.69c3.1-3.81,3.89-9.5,3.89-17.49,0-7.78-.79-13.47-3.81-17.29S323.11,3.6,317.28,3.6Z"/><polygon class="cls-1" points="391.06 42.05 376.87 27.87 374.28 30.31 374.28 39.39 374.28 53.65 364.99 53.65 364.99 39.39 364.99 13.9 364.99 0 374.28 0 374.28 13.9 374.28 25.35 401.93 0 407.04 0 383.71 21.89 402.36 40.9 404.09 42.77 414.89 53.65 402.07 53.65 393.79 44.72 391.06 42.05"/><path class="cls-1" d="M456.88,32.4V53.65h-9.22V32.91L427.14,0h11.52L455,28.23,471.28,0h5.26Z"/><path class="cls-1" d="M516.59,53.65c-8.21,0-13.25-2.53-18.43-7.49-5.33-5-7.93-11.6-7.93-19.73q0-11.88,8-19.23C503.56,2.38,508.52,0,516.52,0s13,2.38,18.43,7.13,8.14,11.38,8.14,19.58c0,7.92-2.59,14.48-7.78,19.45S525,53.65,516.59,53.65Zm-.07-50c-5.69,0-8.36,1.87-11.45,5.76s-4.61,9.51-4.61,17.35,1.58,13.76,4.61,17.57S511,50,517.09,50a13.8,13.8,0,0,0,11.81-5.69c3.1-3.81,3.89-9.5,3.89-17.49C532.79,19,532,13.32,529,9.5S522.35,3.6,516.52,3.6Z"/></g></g></svg>