<svg xmlns="http://www.w3.org/2000/svg" viewBox="0 0 54.87 543.09"><defs><style>.cls-1{fill:#8c8c8c;}</style></defs><title>logotype-v</title><g id="レイヤー_2" data-name="レイヤー 2"><g id="レイヤー_1-2" data-name="レイヤー 1"><path class="cls-1" d="M28.8,518.68a30.85,30.85,0,0,1,6.55-6.34s5.26-3.89,18.3-9.14v7.92c-3,.72-24.63,8-24.63,21.53L29,533.94h24.7v9.15H0V530.92c0-4.9.29-8.93,1.22-12.1A16.4,16.4,0,0,1,5.69,511a11.53,11.53,0,0,1,8-3,12.2,12.2,0,0,1,9.22,4,18.52,18.52,0,0,1,4.61,8.64A12.38,12.38,0,0,1,28.8,518.68ZM4,531.64l-.07,2.3h21.6v-5.11a11.13,11.13,0,0,0-.43-2.59c-.22-.87-.51-1.66-.72-2.38a8.77,8.77,0,0,0-2.09-3.24,8.42,8.42,0,0,0-3-1.94A15,15,0,0,0,14.4,518c-3.46,0-6,.86-7.92,2.52C4.68,521.92,4,525.59,4,531.64Z"/><path class="cls-1" d="M53.65,463.33c0,5.4-2.45,9.43-7.64,12.81C41.12,479.38,34.63,481,26.79,481s-14.4-1.59-19.23-4.83C2.38,472.76,0,468.73,0,463.33s2.38-9.44,7.56-12.89c4.9-3.24,11.38-4.83,19.23-4.83S41,447.2,45.94,450.44C51.2,453.82,53.65,457.85,53.65,463.33Zm-48.9,0c0,2.37.94,4,3.46,5.68,2.3,1.52,8.42,3.39,18.58,3.39S43,470.6,45.36,469c2.52-1.58,3.46-3.24,3.46-5.68,0-3-1.08-4.76-4-6.05-1.95-.87-7.71-3-18-3-10.08,0-16.28,1.8-18.58,3.39C5.69,459.22,4.75,460.88,4.75,463.33Z"/><path class="cls-1" d="M53.65,375.52H10.08l43.57,19.23v2.95L10.08,416.78H53.65v3.53H0v-8.64l41.62-18.43L0,374.88v-8.64H53.65Z"/><path class="cls-1" d="M54.87,337.61a4.53,4.53,0,0,1-1.51,3.45,4.87,4.87,0,0,1-6.77,0,4.94,4.94,0,0,1-1.44-3.45,4.84,4.84,0,0,1,1.44-3.46A4.63,4.63,0,0,1,50,332.78a4.51,4.51,0,0,1,3.46,1.44A4.72,4.72,0,0,1,54.87,337.61Z"/><path class="cls-1" d="M3.53,278.76v7.63H53.65v9.22H3.53v21.46L0,316.92V264.79l3.53-.07Z"/><path class="cls-1" d="M53.65,225.74c0,8.21-2.53,13.25-7.49,18.43-5,5.33-11.6,7.92-19.73,7.92q-11.88,0-19.23-8C2.38,238.77,0,233.8,0,225.81s2.38-13,7.13-18.43,11.38-8.14,19.58-8.14c7.92,0,14.48,2.59,19.45,7.77S53.65,217.31,53.65,225.74Zm-50,.07c0,5.69,1.87,8.35,5.76,11.45s9.51,4.61,17.35,4.61,13.76-1.59,17.57-4.61,5.69-5.91,5.69-12c0-5.33-1.87-8.71-5.69-11.81s-9.5-3.88-17.49-3.88c-7.78,0-13.47.79-17.29,3.81S3.6,220,3.6,225.81Z"/><polygon class="cls-1" points="42.05 152.03 27.87 166.22 30.31 168.81 39.39 168.81 53.65 168.81 53.65 178.1 39.39 178.1 13.9 178.1 0 178.1 0 168.81 13.9 168.81 25.35 168.81 0 141.16 0 136.05 21.89 159.38 40.9 140.73 42.77 139 53.65 128.2 53.65 141.02 44.72 149.3 42.05 152.03"/><path class="cls-1" d="M32.4,86.21H53.65v9.22H32.91L0,116V104.43L28.23,88.08,0,71.81V66.55Z"/><path class="cls-1" d="M53.65,26.5c0,8.21-2.53,13.25-7.49,18.43s-11.6,7.92-19.73,7.92q-11.88,0-19.23-8C2.38,39.53,0,34.56,0,26.57s2.38-13,7.13-18.43S18.51,0,26.71,0c7.92,0,14.48,2.59,19.45,7.78S53.65,18.07,53.65,26.5Zm-50,.07c0,5.69,1.87,8.35,5.76,11.45s9.51,4.61,17.35,4.61S40.47,41,44.28,38,50,32.11,50,26a13.83,13.83,0,0,0-5.69-11.81c-3.81-3.09-9.5-3.88-17.49-3.88-7.78,0-13.47.79-17.29,3.81S3.6,20.74,3.6,26.57Z"/></g></g></svg>