<svg xmlns="http://www.w3.org/2000/svg" viewBox="0 0 92.73 26.82"><title>logotype</title><g id="レイヤー_2" data-name="レイヤー 2"><g id="レイヤー_1-2" data-name="レイヤー 1"><path d="M12.2,14.4a15.25,15.25,0,0,1,3.17,3.27s1.94,2.63,4.57,9.15H16c-.36-1.52-4-12.31-10.76-12.31l-.65,0V26.82H0V0H6.08a22.09,22.09,0,0,1,6.05.61,8.19,8.19,0,0,1,3.92,2.23,5.77,5.77,0,0,1,1.52,4,6.12,6.12,0,0,1-2,4.61,9.31,9.31,0,0,1-4.32,2.3A6.37,6.37,0,0,1,12.2,14.4ZM5.72,2l-1.15,0v10.8H7.13a5.79,5.79,0,0,0,1.29-.21c.44-.11.83-.26,1.19-.36a4.4,4.4,0,0,0,1.62-1.05,4.06,4.06,0,0,0,1-1.51,7.47,7.47,0,0,0,.36-2.41,5.79,5.79,0,0,0-1.26-4C10.58,2.34,8.75,2,5.72,2Z"/><path d="M42.37,26.82a12,12,0,0,1-9.21-3.75,12.82,12.82,0,0,1-4-9.86,12.45,12.45,0,0,1,4-9.61A12.29,12.29,0,0,1,42.33,0a12.65,12.65,0,0,1,9.22,3.56,12.51,12.51,0,0,1,4.07,9.79,12.91,12.91,0,0,1-3.89,9.72A12.16,12.16,0,0,1,42.37,26.82Zm0-25a6.34,6.34,0,0,0-5.72,2.88c-1.51,1.91-2.3,4.75-2.3,8.67s.79,6.88,2.3,8.79a6.65,6.65,0,0,0,6,2.84,6.93,6.93,0,0,0,5.91-2.84c1.54-1.91,1.94-4.75,1.94-8.75s-.4-6.73-1.91-8.64A7.06,7.06,0,0,0,42.33,1.8Z"/><path d="M88.09,26.82V5L78.48,26.82H77L67.46,5V26.82H65.7V0H70l9.21,20.81L88.41,0h4.32V26.82Z"/></g></g></svg>