<svg xmlns="http://www.w3.org/2000/svg" viewBox="0 0 26.82 92.73"><title>logotype-v</title><g id="レイヤー_2" data-name="レイヤー 2"><g id="レイヤー_1-2" data-name="レイヤー 1"><path d="M14.4,80.53a15.5,15.5,0,0,1,3.27-3.17s2.63-1.94,9.15-4.57v4c-1.52.36-12.31,4-12.31,10.76l0,.65H26.82v4.57H0V86.65A22.14,22.14,0,0,1,.61,80.6a8.24,8.24,0,0,1,2.23-3.92,5.76,5.76,0,0,1,4-1.51,6.08,6.08,0,0,1,4.61,2,9.21,9.21,0,0,1,2.3,4.32A5.92,5.92,0,0,1,14.4,80.53ZM2,87l0,1.15h10.8V85.6a5.79,5.79,0,0,0-.21-1.29c-.11-.43-.26-.83-.36-1.19a4.4,4.4,0,0,0-1.05-1.62,4.19,4.19,0,0,0-1.51-1,7.47,7.47,0,0,0-2.41-.36,5.79,5.79,0,0,0-4,1.26C2.34,82.15,2,84,2,87Z"/><path d="M26.82,50.36a12,12,0,0,1-3.75,9.22,12.86,12.86,0,0,1-9.86,4,12.42,12.42,0,0,1-9.61-4A12.29,12.29,0,0,1,0,50.4a12.65,12.65,0,0,1,3.56-9.22,12.51,12.51,0,0,1,9.79-4.06A12.9,12.9,0,0,1,23.07,41,12.17,12.17,0,0,1,26.82,50.36Zm-25,0a6.34,6.34,0,0,0,2.88,5.72c1.91,1.51,4.75,2.31,8.67,2.31s6.88-.8,8.79-2.31a6.65,6.65,0,0,0,2.84-6,6.91,6.91,0,0,0-2.84-5.9c-1.91-1.55-4.75-2-8.75-2s-6.73.4-8.64,1.91A7.06,7.06,0,0,0,1.8,50.4Z"/><path d="M26.82,4.64H5l21.78,9.61v1.48L5,25.27H26.82V27H0V22.71L20.81,13.5,0,4.32V0H26.82Z"/></g></g></svg>